<svg width="40" height="31" viewBox="0 0 40 31" fill="none" xmlns="http://www.w3.org/2000/svg">
<circle cx="30.3152" cy="21.186" r="7.11594" stroke="#130F26" stroke-width="1.5" stroke-linecap="round" stroke-linejoin="round"/>
<path d="M35.2646 26.5049L38.0545 29.2875" stroke="#130F26" stroke-width="1.5" stroke-linecap="round" stroke-linejoin="round"/>
<path fill-rule="evenodd" clip-rule="evenodd" d="M11.9895 19.8794C16.6008 19.8794 20.542 20.5781 20.542 23.3694C20.542 26.1606 16.627 26.8794 11.9895 26.8794C7.37701 26.8794 3.43701 26.1869 3.43701 23.3944C3.43701 20.6019 7.35076 19.8794 11.9895 19.8794Z" stroke="#130F26" stroke-width="1.5" stroke-linecap="round" stroke-linejoin="round"/>
<path fill-rule="evenodd" clip-rule="evenodd" d="M11.9893 15.8956C8.96184 15.8956 6.50684 13.4419 6.50684 10.4144C6.50684 7.38686 8.96184 4.93311 11.9893 4.93311C15.0156 4.93311 17.4706 7.38686 17.4706 10.4144C17.4818 13.4306 15.0443 15.8844 12.0281 15.8956H11.9893Z" stroke="#130F26" stroke-width="1.5" stroke-linecap="round" stroke-linejoin="round"/>
<path d="M20.604 14.4729C22.6053 14.1917 24.1465 12.4742 24.1503 10.3954C24.1503 8.34669 22.6565 6.64669 20.6978 6.32544" stroke="#130F26" stroke-width="1.5" stroke-linecap="round" stroke-linejoin="round"/>
<path d="M23.2441 19.2861C25.1829 19.5749 26.5366 20.2549 26.5366 21.6549C26.5366 22.6186 25.8991 23.2436 24.8691 23.6349" stroke="#130F26" stroke-width="1.5" stroke-linecap="round" stroke-linejoin="round"/>
</svg>
