<svg width="40" height="31" viewBox="0 0 40 31" fill="none" xmlns="http://www.w3.org/2000/svg">
<path d="M31.8833 28.0548H37.6249" stroke="#130F26" stroke-width="1.5" stroke-linecap="round" stroke-linejoin="round"/>
<path fill-rule="evenodd" clip-rule="evenodd" d="M31.1175 14.8751C31.7316 14.1412 32.8354 14.0336 33.5845 14.6351C33.6259 14.6678 34.9567 15.7016 34.9567 15.7016C35.7796 16.199 36.0353 17.2566 35.5266 18.0637C35.4996 18.107 27.9761 27.5177 27.9761 27.5177C27.7258 27.83 27.3459 28.0143 26.9398 28.0187L24.0586 28.0549L23.4095 25.3073C23.3185 24.9209 23.4095 24.5152 23.6598 24.2029L31.1175 14.8751Z" stroke="#130F26" stroke-width="1.5" stroke-linecap="round" stroke-linejoin="round"/>
<path d="M29.7246 16.6216L34.041 19.9364" stroke="#130F26" stroke-width="1.5" stroke-linecap="round" stroke-linejoin="round"/>
<path d="M19.6456 21.1501H10.6206" stroke="#130F26" stroke-width="1.5" stroke-linecap="round" stroke-linejoin="round"/>
<path d="M19.6456 15.917H10.6206" stroke="#130F26" stroke-width="1.5" stroke-linecap="round" stroke-linejoin="round"/>
<path d="M14.0644 10.696H10.6206" stroke="#130F26" stroke-width="1.5" stroke-linecap="round" stroke-linejoin="round"/>
<path fill-rule="evenodd" clip-rule="evenodd" d="M19.886 4.30811C19.886 4.30811 10.2897 4.31311 10.2747 4.31311C6.82473 4.33436 4.68848 6.60436 4.68848 10.0669V21.5619C4.68848 25.0419 6.84098 27.3206 10.321 27.3206C10.321 27.3206 19.916 27.3169 19.9322 27.3169C23.3822 27.2956 25.5197 25.0244 25.5197 21.5619V10.0669C25.5197 6.58686 23.366 4.30811 19.886 4.30811Z" stroke="#130F26" stroke-width="1.5" stroke-linecap="round" stroke-linejoin="round"/>
</svg>
