<svg width="1087" height="623" viewBox="0 0 1087 623" fill="none" xmlns="http://www.w3.org/2000/svg">
<path d="M2.5 67.0288C9.33333 69.1955 21.2 66.3288 16 45.5288" stroke="#FF0000" stroke-width="5" stroke-linecap="round"/>
<path d="M25.6024 46.3081C24.1724 53.3326 27 64.0288 46.4999 53.5288" stroke="#FF0000" stroke-width="5" stroke-linecap="round"/>
<path d="M45.5003 65.5288C41.0002 66.0288 30.5002 68.0288 32.9118 86.7978" stroke="#FF0000" stroke-width="5" stroke-linecap="round"/>
<path d="M8 80.0288C13.5 76.5288 23.5 73.5288 20.6597 92.7761" stroke="#FF0000" stroke-width="5" stroke-linecap="round"/>
<circle cx="382" cy="23.0288" r="13" fill="#FEA7C9"/>
<circle cx="132" cy="488.029" r="10" fill="#00B8E4"/>
<circle cx="1074.5" cy="609.529" r="12.5" fill="#FEA7C9"/>
<path d="M474.5 96.0288L496.677 77.5489L469.584 67.5828L474.5 96.0288ZM546 26.5288L547.562 24.5766L546 26.5288ZM575.5 5.02878L574.759 2.64112L574.616 2.68554L574.479 2.74674L575.5 5.02878ZM603.5 15.0288L601.319 13.8073L603.5 15.0288ZM662.553 20.0387C662.834 21.3904 664.158 22.2578 665.51 21.9762C666.862 21.6946 667.729 20.3706 667.447 19.0189L662.553 20.0387ZM643.414 3.52621L643.487 1.02727L643.414 3.52621ZM643.584 3.54667L643.062 5.99146L643.584 3.54667ZM605.675 33.0567L605.975 30.5748L605.675 33.0567ZM605.352 32.9356L606.711 30.8372L605.352 32.9356ZM610.477 23.9227L608.034 24.4533L610.477 23.9227ZM610.5 24.1371L613 24.1466L610.5 24.1371ZM550.727 42.6529L552.904 43.8822L550.727 42.6529ZM550.064 43.0943L549.732 40.6165L550.064 43.0943ZM484.55 75.9321C490.861 61.7586 500.264 44.8963 511.09 34.1424C516.502 28.7664 522.073 25.1154 527.597 23.9079C532.979 22.7315 538.599 23.8092 544.438 28.4809L547.562 24.5766C540.643 19.0419 533.505 17.4986 526.529 19.0233C519.696 20.5169 513.31 24.889 507.566 30.5951C496.079 42.0054 486.374 59.5427 479.983 73.8985L484.55 75.9321ZM544.438 28.4809C547.832 31.1956 549.08 33.9197 549.415 36.1203C549.761 38.3898 549.17 40.3261 548.55 41.4235L552.904 43.8822C554.012 41.9196 554.891 38.8609 554.358 35.3668C553.815 31.8039 551.836 27.9959 547.562 24.5766L544.438 28.4809ZM549.732 40.6165C548.677 40.7579 547.591 40.754 546.696 40.5618C545.788 40.3669 545.326 40.0385 545.111 39.7461C544.938 39.5096 544.644 38.9186 544.938 37.4919C545.241 36.0189 546.136 33.8775 548.09 30.9004L543.91 28.1571C541.784 31.3969 540.522 34.1435 540.04 36.4844C539.549 38.8718 539.844 41.0208 541.081 42.7054C542.277 44.334 544.048 45.1075 545.646 45.4505C547.257 45.7963 548.949 45.7661 550.396 45.5721L549.732 40.6165ZM548.09 30.9004C556.126 18.6548 570.416 10.0419 576.521 7.31083L574.479 2.74674C567.917 5.68233 552.674 14.8028 543.91 28.1571L548.09 30.9004ZM576.241 7.41644C580.722 6.02576 587.7 5.26346 594.001 7.36444C600.106 9.39984 605.802 14.179 608.034 24.4533L612.92 23.392C610.31 11.3737 603.343 5.20831 595.583 2.62111C588.019 0.0994818 579.929 1.03655 574.759 2.64112L576.241 7.41644ZM608 24.1276C607.986 27.6652 607.257 29.3265 606.726 30.0243C606.252 30.6478 605.911 30.5671 605.975 30.5748L605.374 35.5386C607.144 35.7528 609.202 35.0296 610.706 33.0504C612.154 31.1456 612.984 28.2438 613 24.1466L608 24.1276ZM606.711 30.8372C605.692 30.1772 604.263 28.6642 603.656 26.317C603.067 24.0376 603.186 20.7053 605.681 16.2503L601.319 13.8073C598.305 19.1892 597.851 23.8392 598.815 27.5684C599.762 31.2298 602.013 33.7518 603.993 35.0341L606.711 30.8372ZM605.681 16.2503C606.738 14.3638 608.752 12.6683 611.659 11.2146C614.544 9.77216 618.1 8.67185 621.93 7.86282C629.59 6.24467 637.966 5.86872 643.341 6.02515L643.487 1.02727C637.826 0.862516 629.038 1.25085 620.896 2.97079C616.825 3.83079 612.822 5.04297 609.423 6.74254C606.047 8.43083 603.055 10.7068 601.319 13.8073L605.681 16.2503ZM643.062 5.99146C646.027 6.62522 650.607 8.14198 654.63 10.5976C658.706 13.0858 661.765 16.2578 662.553 20.0387L667.447 19.0189C666.244 13.2422 661.778 9.10325 657.235 6.32995C652.639 3.52394 647.507 1.82842 644.107 1.10187L643.062 5.99146ZM643.341 6.02515C643.301 6.024 643.254 6.02095 643.202 6.01471C643.15 6.00846 643.103 6.0002 643.062 5.99146L644.107 1.10187C643.899 1.05746 643.695 1.03333 643.487 1.02727L643.341 6.02515ZM605.975 30.5748C606.291 30.613 606.54 30.7266 606.711 30.8372L603.993 35.0341C604.361 35.2722 604.826 35.4722 605.374 35.5386L605.975 30.5748ZM608.034 24.4533C608.011 24.3465 607.999 24.2406 608 24.1276L613 24.1466C613.001 23.8928 612.973 23.6365 612.92 23.392L608.034 24.4533ZM548.55 41.4235C548.817 40.9504 549.276 40.6777 549.732 40.6165L550.396 45.5721C551.41 45.4362 552.36 44.845 552.904 43.8822L548.55 41.4235Z" fill="#7976F6"/>
</svg>
