<svg width="204" height="69" viewBox="0 0 204 69" fill="none" xmlns="http://www.w3.org/2000/svg">
<path d="M3 24.5288C9.5 44.0288 30.2 78.6288 61 61.0288C71.6656 54.9342 76.6233 46.0456 78.1736 37.0288M78.1736 37.0288C80.9894 20.6511 72.5635 3.85075 66.6813 2.6029C66.2755 2.51682 65.9018 2.78102 65.7649 3.17258C62.8663 11.4629 61.5558 28.8471 78.1736 37.0288ZM78.1736 37.0288C95.1109 45.3678 119.148 27.7873 124.877 27.5316C124.965 27.5277 125.039 27.5183 125.124 27.4955C139.37 23.6866 174.278 22.1996 201 46.5288M201 46.5288C201.8 47.3288 192.667 31.1955 188 23.0288M201 46.5288L179.5 49.0288" stroke="#7976F6" stroke-width="5" stroke-linecap="round"/>
</svg>
