<svg width="122" height="20" viewBox="0 0 122 20" fill="none" xmlns="http://www.w3.org/2000/svg">
<path d="M0.657894 13.504C0.138934 13.693 -0.128601 14.2668 0.0603386 14.7858C0.249278 15.3047 0.823145 15.5723 1.34211 15.3833L0.657894 13.504ZM121.421 15.3507C121.922 15.1181 122.14 14.5235 121.907 14.0226L118.117 5.85942C117.885 5.35849 117.29 5.14094 116.789 5.3735C116.288 5.60606 116.071 6.20068 116.303 6.70161L119.672 13.9578L112.416 17.3265C111.915 17.5591 111.697 18.1537 111.93 18.6546C112.162 19.1555 112.757 19.3731 113.258 19.1405L121.421 15.3507ZM1.34211 15.3833C1.99467 15.1458 2.64319 14.9115 3.28775 14.6805L2.61316 12.7977C1.9653 13.0299 1.31358 13.2653 0.657894 13.504L1.34211 15.3833ZM7.15368 13.3191C8.46283 12.8665 9.75587 12.4282 11.0338 12.0042L10.4041 10.106C9.11781 10.5327 7.81681 10.9737 6.50009 11.4289L7.15368 13.3191ZM14.9301 10.7418C16.2501 10.3247 17.5544 9.9236 18.8441 9.53862L18.2721 7.62217C16.9717 8.01034 15.6572 8.41454 14.3275 8.83476L14.9301 10.7418ZM22.7769 8.40227C24.1087 8.0306 25.4256 7.67687 26.7291 7.34106L26.2301 5.4043C24.9132 5.74357 23.5834 6.10077 22.2393 6.47588L22.7769 8.40227ZM30.7007 6.36389C32.0436 6.04948 33.3733 5.75488 34.6914 5.48006L34.2831 3.52217C32.9486 3.80042 31.603 4.09855 30.2448 4.41654L30.7007 6.36389ZM38.7003 4.69904C40.0524 4.45452 41.3937 4.23154 42.7261 4.03008L42.4271 2.05256C41.0752 2.25697 39.7149 2.48312 38.3444 2.73095L38.7003 4.69904ZM46.7673 3.48192C48.1257 3.31915 49.4766 3.17928 50.8222 3.06231L50.649 1.06982C49.2814 1.18871 47.9089 1.33082 46.5293 1.49613L46.7673 3.48192ZM54.8915 2.77757C56.2521 2.70564 57.6093 2.65742 58.9654 2.6329L58.9293 0.633231C57.5499 0.658168 56.1695 0.707217 54.7859 0.780357L54.8915 2.77757ZM63.041 2.63063C64.3972 2.65364 65.7545 2.70037 67.1151 2.77085L67.2186 0.773525C65.8349 0.701858 64.4544 0.654325 63.075 0.63092L63.041 2.63063ZM71.1846 3.05141C72.5302 3.16708 73.8813 3.3057 75.2398 3.46731L75.476 1.48131C74.0963 1.31717 72.7236 1.17632 71.3559 1.05876L71.1846 3.05141ZM79.2812 4.01233C80.6136 4.21288 81.955 4.43504 83.3072 4.67887L83.6621 2.71061C82.2914 2.46344 80.9309 2.23811 79.5788 2.03461L79.2812 4.01233ZM87.3162 5.45826C88.6343 5.73267 89.9639 6.027 91.3069 6.3413L91.7626 4.39392C90.4042 4.07601 89.0585 3.77811 87.7239 3.50025L87.3162 5.45826ZM95.2782 7.31857C96.5815 7.65455 97.8983 8.0086 99.2299 8.38077L99.7682 6.45458C98.4241 6.07893 97.0944 5.72136 95.7775 5.38189L95.2782 7.31857ZM103.162 9.519C104.451 9.90472 105.755 10.3067 107.075 10.7249L107.679 8.8184C106.35 8.39703 105.035 7.99186 103.735 7.6029L103.162 9.519ZM110.97 11.991C112.247 12.4162 113.539 12.856 114.848 13.3103L115.504 11.421C114.188 10.964 112.887 10.5214 111.601 10.0934L110.97 11.991ZM118.712 14.677C119.356 14.9089 120.004 15.1442 120.656 15.3828L121.344 13.5046C120.688 13.2648 120.037 13.0283 119.389 12.7952L118.712 14.677Z" fill="#952AFF"/>
</svg>
