<svg width="34" height="38" viewBox="0 0 34 38" fill="none" xmlns="http://www.w3.org/2000/svg">
<path d="M17.3332 1.33337H3.99984C3.11578 1.33337 2.26794 1.68456 1.64281 2.30968C1.01769 2.93481 0.666504 3.78265 0.666504 4.66671V31.3334C0.666504 32.2174 1.01769 33.0653 1.64281 33.6904C2.26794 34.3155 3.11578 34.6667 3.99984 34.6667H15.6665C14.9832 34.25 14.3332 33.7334 13.7665 33.1667C13.2165 32.6167 12.7498 32 12.3332 31.3334H3.99984V4.66671H15.6665V13H23.9998V14.9667C25.1832 15.2334 26.3165 15.6834 27.3332 16.3334V11.3334L17.3332 1.33337ZM27.8498 29.5C30.0665 25.9834 28.9998 21.3334 25.5165 19.1334C21.9998 16.9167 17.3332 18 15.1498 21.4667C12.9165 24.9834 13.9998 29.6167 17.4832 31.8334C19.9165 33.3834 23.0165 33.3834 25.4665 31.8667L30.6665 36.9834L32.9832 34.6667L27.8498 29.5ZM21.4998 29.6667C20.3948 29.6667 19.335 29.2277 18.5536 28.4463C17.7722 27.6649 17.3332 26.6051 17.3332 25.5C17.3332 24.395 17.7722 23.3352 18.5536 22.5538C19.335 21.7724 20.3948 21.3334 21.4998 21.3334C22.6049 21.3334 23.6647 21.7724 24.4461 22.5538C25.2275 23.3352 25.6665 24.395 25.6665 25.5C25.6665 26.6051 25.2275 27.6649 24.4461 28.4463C23.6647 29.2277 22.6049 29.6667 21.4998 29.6667Z" fill="white" stroke="white"/>
</svg>
