<svg width="61" height="67" viewBox="0 0 61 67" fill="none" xmlns="http://www.w3.org/2000/svg">
<path d="M19.0001 5.00012C4.18345 -1.17338 2.31169 21.9728 3.77731 34.361C3.86588 35.1097 4.72466 35.4568 5.31836 34.9922C16.9128 25.9199 30.5585 9.81602 19.0001 5.00012Z" stroke="#2E92D5" stroke-width="6"/>
<path d="M55.9793 16.439C47.9335 3.29651 33.2509 21.1325 27.2877 32.0745C26.921 32.7473 27.4413 33.5362 28.2054 33.4776C42.4634 32.3841 62.2508 26.683 55.9793 16.439Z" stroke="#2E92D5" stroke-width="6"/>
<path d="M52.4979 55.7622C55.4481 40.6651 32.5466 43.9247 20.742 47.9734C20.0161 48.2223 19.8679 49.1573 20.473 49.6292C31.739 58.4176 50.1986 67.5289 52.4979 55.7622Z" stroke="#2E92D5" stroke-width="6"/>
</svg>
