<svg width="24" height="21" viewBox="0 0 24 21" fill="none" xmlns="http://www.w3.org/2000/svg">
<path d="M0.940924 2.79199V0.790039H2.94288V2.79199H0.940924ZM7.90733 2.79199V0.790039H9.90928V2.79199H7.90733ZM14.8737 2.79199V0.790039H16.8757V2.79199H14.8737ZM21.8401 2.79199V0.790039H23.8421V2.79199H21.8401ZM0.940924 8.79199V6.79004H2.94288V8.79199H0.940924ZM7.90733 8.79199V6.79004H9.90928V8.79199H7.90733ZM14.8737 8.79199V6.79004H16.8757V8.79199H14.8737ZM21.8401 8.79199V6.79004H23.8421V8.79199H21.8401ZM0.940924 14.792V12.79H2.94288V14.792H0.940924ZM7.90733 14.792V12.79H9.90928V14.792H7.90733ZM14.8737 14.792V12.79H16.8757V14.792H14.8737ZM21.8401 14.792V12.79H23.8421V14.792H21.8401ZM0.940924 20.792V18.79H2.94288V20.792H0.940924ZM7.90733 20.792V18.79H9.90928V20.792H7.90733ZM14.8737 20.792V18.79H16.8757V20.792H14.8737ZM21.8401 20.792V18.79H23.8421V20.792H21.8401Z" fill="#B5B2E3"/>
</svg>
