<svg width="10" height="25" viewBox="0 0 10 25" fill="none" xmlns="http://www.w3.org/2000/svg">
<path d="M1.03357 10.2C1.50024 10.9 2.08357 11.4833 2.90024 11.8333H7.5669C7.9169 11.7166 8.15024 11.4833 8.38357 11.25C9.55024 10.0833 10.0169 8.33329 9.43357 6.81663L9.3169 6.58329C9.20024 6.23329 8.9669 5.99996 8.73357 5.76663C8.6169 5.53329 8.38357 5.41663 8.2669 5.18329C7.80024 4.83329 7.33357 4.48329 6.8669 4.01663C5.8169 2.96663 5.70024 1.33329 6.28357 0.166626C5.70024 0.283293 5.1169 0.633293 4.65024 1.09996C2.90024 2.49996 2.20024 4.94996 3.0169 7.16663V7.39996C3.0169 7.51663 2.90024 7.63329 2.78357 7.74996C2.6669 7.86663 2.43357 7.74996 2.3169 7.63329L2.20024 7.51663C1.50024 6.58329 1.38357 5.18329 1.85024 4.01663C0.800236 4.94996 0.216902 6.46663 0.333569 7.98329C0.333569 8.33329 0.450235 8.68329 0.566902 9.03329C0.566902 9.38329 0.800236 9.84996 1.03357 10.2ZM5.35024 8.44996C5.4669 7.86663 5.23357 7.39996 5.1169 6.93329C5.00024 6.46663 5.00024 5.99996 5.23357 5.53329L5.58357 6.23329C6.05024 6.93329 6.8669 7.16663 7.10024 8.09996V8.44996C7.10024 9.03329 6.8669 9.61663 6.5169 9.96663C6.28357 10.0833 6.05024 10.3166 5.8169 10.3166C5.1169 10.55 4.30024 10.2 3.83357 9.73329C4.7669 9.73329 5.23357 9.03329 5.35024 8.44996ZM8.50024 13V15.3333H7.33357L6.1669 24.6666H3.83357L2.6669 15.3333H1.50024V13H8.50024Z" fill="#FFC529"/>
</svg>
