<svg width="122" height="22" viewBox="0 0 122 22" fill="none" xmlns="http://www.w3.org/2000/svg">
<path d="M1.41139 4.27323C0.908003 4.04603 0.315743 4.26992 0.0885399 4.7733C-0.138664 5.27669 0.0852261 5.86895 0.588612 6.09615L1.41139 4.27323ZM121.932 5.54639C122.132 5.03149 121.877 4.45216 121.362 4.2524L112.971 0.997136C112.456 0.797378 111.877 1.05284 111.677 1.56774C111.477 2.08263 111.733 2.66197 112.248 2.86173L119.706 5.75529L116.812 13.2137C116.613 13.7286 116.868 14.3079 117.383 14.5077C117.898 14.7074 118.477 14.4519 118.677 13.9371L121.932 5.54639ZM0.588612 6.09615C1.19362 6.36922 1.79525 6.63872 2.39359 6.90464L3.20585 5.07701C2.6111 4.81268 2.01297 4.54476 1.41139 4.27323L0.588612 6.09615ZM5.97853 8.47179C7.19316 8.99361 8.39441 9.50009 9.58306 9.99124L10.3468 8.14281C9.16713 7.65537 7.97445 7.15251 6.76799 6.63419L5.97853 8.47179ZM13.2143 11.4592C14.4492 11.9469 15.6708 12.4175 16.8801 12.8708L17.5822 10.9981C16.3843 10.549 15.1736 10.0827 13.9491 9.59902L13.2143 11.4592ZM20.5707 14.2141C21.8224 14.6557 23.0613 15.078 24.2887 15.4812L24.9129 13.5811C23.6998 13.1826 22.4745 12.7649 21.2361 12.3281L20.5707 14.2141ZM28.0359 16.6631C29.3062 17.0468 30.5649 17.4092 31.8134 17.7503L32.3406 15.8211C31.1098 15.4847 29.8681 15.1273 28.6141 14.7485L28.0359 16.6631ZM35.6215 18.7326C36.9103 19.0448 38.1892 19.3337 39.4597 19.5992L39.8689 17.6415C38.6196 17.3804 37.3613 17.0962 36.0924 16.7888L35.6215 18.7326ZM43.3262 20.3397C44.631 20.5664 45.9284 20.7679 47.2198 20.9442L47.4904 18.9626C46.2234 18.7896 44.95 18.5918 43.6685 18.3692L43.3262 20.3397ZM51.138 21.4036C52.4529 21.5322 53.7633 21.6343 55.071 21.7099L55.1866 19.7133C53.9055 19.6391 52.6214 19.5391 51.3326 19.4131L51.138 21.4036ZM59.013 21.8583C60.3283 21.8811 61.6425 21.8771 62.9575 21.8463L62.9108 19.8469C61.6228 19.877 60.3357 19.8809 59.0476 19.8586L59.013 21.8583ZM66.8982 21.6745C68.2053 21.5912 69.5149 21.4817 70.8288 21.3461L70.6235 19.3567C69.3353 19.4896 68.0517 19.5969 66.771 19.6785L66.8982 21.6745ZM74.7435 20.867C76.0346 20.6845 77.3314 20.4773 78.6354 20.2454L78.2853 18.2763C77.0041 18.5041 75.7307 18.7076 74.4636 18.8867L74.7435 20.867ZM82.4984 19.4916C83.768 19.2223 85.0458 18.9302 86.3334 18.6156L85.8586 16.6728C84.5903 16.9827 83.3323 17.2702 82.0833 17.5352L82.4984 19.4916ZM90.139 17.6281C91.3871 17.2859 92.6454 16.9231 93.9151 16.54L93.3373 14.6252C92.0832 15.0037 90.8412 15.3617 89.6101 15.6993L90.139 17.6281ZM97.6622 15.3614C98.8902 14.9599 100.13 14.5401 101.382 14.1021L100.721 12.2143C99.4815 12.648 98.2551 13.0634 97.0407 13.4604L97.6622 15.3614ZM105.075 12.7707C106.286 12.3219 107.51 11.8566 108.746 11.3751L108.02 9.51146C106.794 9.98919 105.581 10.4505 104.38 10.8954L105.075 12.7707ZM112.383 9.92789C113.574 9.44379 114.779 8.94519 115.997 8.43215L115.22 6.58903C114.01 7.0989 112.813 7.59421 111.63 8.07494L112.383 9.92789ZM119.593 6.89255C120.193 6.63161 120.797 6.36732 121.403 6.09968L120.597 4.2697C119.993 4.53597 119.392 4.79886 118.795 5.05838L119.593 6.89255Z" fill="#952AFF"/>
</svg>
