<svg width="34" height="30" viewBox="0 0 34 30" fill="none" xmlns="http://www.w3.org/2000/svg">
<path fill-rule="evenodd" clip-rule="evenodd" d="M20.6874 7.93735C20.6874 12.3436 17.0817 15.8747 12.5824 15.8747C8.08466 15.8747 4.47734 12.3436 4.47734 7.93735C4.47734 3.53108 8.08466 0 12.5824 0C17.0817 0 20.6874 3.53108 20.6874 7.93735ZM0.333496 24.8623C0.333496 20.7834 5.97604 19.7629 12.5824 19.7629C19.2246 19.7629 24.8313 20.8185 24.8313 24.9006C24.8313 28.9795 19.1887 30 12.5824 30C5.94016 30 0.333496 28.9443 0.333496 24.8623ZM23.9559 8.08125C23.9559 10.3251 23.2677 12.4188 22.0609 14.158C21.9353 14.3369 22.0462 14.5781 22.2647 14.6164C22.5681 14.6659 22.8795 14.6962 23.1975 14.7026C26.3613 14.7841 29.2005 12.7894 29.9849 9.7853C31.1477 5.32793 27.736 1.32571 23.39 1.32571C22.9187 1.32571 22.4669 1.37363 22.0266 1.46146C21.9663 1.47424 21.9011 1.50299 21.8684 1.55409C21.826 1.61957 21.857 1.70422 21.8994 1.76011C23.2057 3.5536 23.9559 5.73677 23.9559 8.08125ZM29.1956 17.8372C31.3222 18.2444 32.7197 19.0733 33.2987 20.2823C33.7895 21.2724 33.7895 22.4223 33.2987 23.4125C32.4132 25.2842 29.556 25.8863 28.4454 26.0412C28.2155 26.0732 28.0312 25.8815 28.0557 25.6547C28.6232 20.4675 24.1108 18.008 22.9431 17.4427C22.8942 17.4155 22.8828 17.3772 22.8877 17.3517C22.891 17.3357 22.9122 17.3101 22.9497 17.3053C25.4758 17.2574 28.1927 17.5976 29.1956 17.8372Z" fill="white"/>
</svg>
